<?xml version="1.0" standalone="no"?>
<svg xmlns:xlink="http://www.w3.org/1999/xlink" id="wave" style="transform:rotate(0deg); transition: 0.3s" viewBox="0 0 1440 170" version="1.1" xmlns="http://www.w3.org/2000/svg"><defs><linearGradient id="sw-gradient-0" x1="0" x2="0" y1="1" y2="0"><stop stop-color="rgba(196, 225, 211, 1)" offset="0%"/><stop stop-color="rgba(196, 225, 211, 1)" offset="100%"/></linearGradient></defs><path style="transform:translate(0, 0px); opacity:1" fill="url(#sw-gradient-0)" d="M0,34L80,28.3C160,23,320,11,480,25.5C640,40,800,79,960,93.5C1120,108,1280,96,1440,99.2C1600,102,1760,119,1920,113.3C2080,108,2240,79,2400,56.7C2560,34,2720,17,2880,28.3C3040,40,3200,79,3360,85C3520,91,3680,62,3840,68C4000,74,4160,113,4320,130.3C4480,147,4640,142,4800,130.3C4960,119,5120,102,5280,79.3C5440,57,5600,28,5760,22.7C5920,17,6080,34,6240,59.5C6400,85,6560,119,6720,119C6880,119,7040,85,7200,76.5C7360,68,7520,85,7680,82.2C7840,79,8000,57,8160,48.2C8320,40,8480,45,8640,42.5C8800,40,8960,28,9120,34C9280,40,9440,62,9600,73.7C9760,85,9920,85,10080,90.7C10240,96,10400,108,10560,116.2C10720,125,10880,130,11040,136C11200,142,11360,147,11440,150.2L11520,153L11520,170L11440,170C11360,170,11200,170,11040,170C10880,170,10720,170,10560,170C10400,170,10240,170,10080,170C9920,170,9760,170,9600,170C9440,170,9280,170,9120,170C8960,170,8800,170,8640,170C8480,170,8320,170,8160,170C8000,170,7840,170,7680,170C7520,170,7360,170,7200,170C7040,170,6880,170,6720,170C6560,170,6400,170,6240,170C6080,170,5920,170,5760,170C5600,170,5440,170,5280,170C5120,170,4960,170,4800,170C4640,170,4480,170,4320,170C4160,170,4000,170,3840,170C3680,170,3520,170,3360,170C3200,170,3040,170,2880,170C2720,170,2560,170,2400,170C2240,170,2080,170,1920,170C1760,170,1600,170,1440,170C1280,170,1120,170,960,170C800,170,640,170,480,170C320,170,160,170,80,170L0,170Z"/></svg>